<!-- <svg xmlns="http://www.w3.org/2000/svg" width="24" height="24" viewBox="0 0 24 24" style="fill: #fff;transform: ;msFilter:;"><path d="M16.939 7.939 12 12.879l-4.939-4.94-2.122 2.122L12 17.121l7.061-7.06z"></path></svg> -->

<svg xmlns="http://www.w3.org/2000/svg" height="25" width="25" viewBox="0 0 512 512"><path fill="#fff" d="M256 0a256 256 0 1 0 0 512A256 256 0 1 0 256 0zM135 241c-9.4-9.4-9.4-24.6 0-33.9s24.6-9.4 33.9 0l87 87 87-87c9.4-9.4 24.6-9.4 33.9 0s9.4 24.6 0 33.9L273 345c-9.4 9.4-24.6 9.4-33.9 0L135 241z"/></svg>